<?xml version="1.0" encoding="utf-8"?>
<!-- Generator: Adobe Illustrator 15.0.0, SVG Export Plug-In . SVG Version: 6.00 Build 0)  -->
<!DOCTYPE svg PUBLIC "-//W3C//DTD SVG 1.1//EN" "http://www.w3.org/Graphics/SVG/1.1/DTD/svg11.dtd">
<svg version="1.1" id="图形" xmlns="http://www.w3.org/2000/svg" xmlns:xlink="http://www.w3.org/1999/xlink" x="0px" y="0px"
	 width="1000.637px" height="1000.678px" viewBox="0 0 1000.637 1000.678" enable-background="new 0 0 1000.637 1000.678"
	 xml:space="preserve">
<path fill="#899DC1" d="M773.417,238.782h-518.15l-78.104,220.398h131.861c22.635,0,41.32,19.912,41.32,44.203v44.202h328.313
	v-44.202c0-24.291,18.368-44.203,41-44.203h131.7L773.417,238.782z M952.096,782.746c0,24.289-18.364,44.256-40.947,44.256H117.534
	c-22.635,0-40.945-19.967-40.945-44.256V503.384c0-5.552,1.172-10.729,2.72-15.48l109.492-309.231
	c5.979-16.309,20.66-28.267,38.17-28.267H801.71c17.51,0,32.137,11.958,38.115,28.642l109.492,308.482
	c1.603,5.125,2.777,10.303,2.777,15.854L952.096,782.746L952.096,782.746z"/>
</svg>
