<?xml version="1.0" encoding="utf-8"?>
<!-- Generator: Adobe Illustrator 15.0.0, SVG Export Plug-In . SVG Version: 6.00 Build 0)  -->
<!DOCTYPE svg PUBLIC "-//W3C//DTD SVG 1.1//EN" "http://www.w3.org/Graphics/SVG/1.1/DTD/svg11.dtd">
<svg version="1.1" id="图形" xmlns="http://www.w3.org/2000/svg" xmlns:xlink="http://www.w3.org/1999/xlink" x="0px" y="0px"
	 width="1000.637px" height="1000.678px" viewBox="15.167 -16.333 1000.637 1000.678"
	 enable-background="new 15.167 -16.333 1000.637 1000.678" xml:space="preserve">
<path fill-rule="evenodd" clip-rule="evenodd" fill="#5F5F5F" d="M287.572,372.515c0,42.189,7.819,82.82,22.661,119.557
	L121.166,681.136c-50.813,50.778-50.813,133.597,0,185.137c51.541,50.816,134.36,50.816,185.138,0L495.37,677.208
	c36.735,14.84,77.365,22.659,119.558,22.659c180.48,0,327.354-146.109,327.354-327.352c0-42.195-7.82-82.022-22.661-119.523
	L764.929,407.686c-25.789,25.79-67.182,25.79-92.97,0l-92.207-92.205c-25.787-25.79-25.787-67.181,0-92.968L734.447,67.819
	c-37.5-14.841-77.325-22.66-119.52-22.66C433.683,45.159,287.572,192.031,287.572,372.515z"/>
</svg>
