<?xml version="1.0" encoding="utf-8"?>
<!-- Generator: Adobe Illustrator 15.0.0, SVG Export Plug-In . SVG Version: 6.00 Build 0)  -->
<!DOCTYPE svg PUBLIC "-//W3C//DTD SVG 1.1//EN" "http://www.w3.org/Graphics/SVG/1.1/DTD/svg11.dtd">
<svg version="1.1" id="图形" xmlns="http://www.w3.org/2000/svg" xmlns:xlink="http://www.w3.org/1999/xlink" x="0px" y="0px"
	 width="1000.637px" height="1000.678px" viewBox="15.167 -16.333 1000.637 1000.678"
	 enable-background="new 15.167 -16.333 1000.637 1000.678" xml:space="preserve">
<path fill-rule="evenodd" clip-rule="evenodd" fill="#FFFFFF" d="M415.035,122.181c-128.089,0-231.465,103.375-231.465,231.465
	c0,128.089,103.376,231.465,231.465,231.465c128.088,0,231.464-103.376,231.464-231.465
	C646.5,225.556,543.124,122.181,415.035,122.181z M906.772,736.331c13.89,13.889,22.629,33.43,22.629,54.525
	c0,42.697-34.458,77.155-77.155,77.155c-21.096,0-40.636-8.74-54.525-22.63L571.404,619.068
	c-45.786,27.249-99.282,43.198-156.369,43.198c-170.258,0-308.62-138.363-308.62-308.62c0-170.258,138.362-308.62,308.62-308.62
	c170.257,0,308.62,138.362,308.62,308.62c0,57.087-15.948,110.584-43.199,156.37L906.772,736.331z"/>
</svg>
