<?xml version="1.0" encoding="utf-8"?>
<!-- Generator: Adobe Illustrator 15.0.0, SVG Export Plug-In . SVG Version: 6.00 Build 0)  -->
<!DOCTYPE svg PUBLIC "-//W3C//DTD SVG 1.1//EN" "http://www.w3.org/Graphics/SVG/1.1/DTD/svg11.dtd">
<svg version="1.1" id="图形" xmlns="http://www.w3.org/2000/svg" xmlns:xlink="http://www.w3.org/1999/xlink" x="0px" y="0px"
	 width="1000.637px" height="1000.678px" viewBox="15.167 -16.333 1000.637 1000.678"
	 enable-background="new 15.167 -16.333 1000.637 1000.678" xml:space="preserve">
<path fill-rule="evenodd" clip-rule="evenodd" fill="#22BAA0" d="M320.419,238.755c0,106.524,67.723,262.867,194.772,262.867
	c124.766,0,194.772-156.343,194.772-262.867c0-106.506-87.114-192.859-194.772-192.859
	C407.533,45.896,320.419,132.249,320.419,238.755z M852.226,676.223c-38.804-49.834-85.964-82.155-153.297-100.804l-63.152,217.97
	c0,19.784-16.737,36.146-37.28,36.146c-20.151,0-36.888-16.362-36.888-36.146V619.923c0-25.094-20.935-45.267-46.418-45.267
	c-25.484,0-46.418,20.173-46.418,45.267v173.466c0,19.784-16.735,36.146-36.888,36.146c-20.544,0-37.281-16.362-37.281-36.146
	l-63.153-217.97c-67.332,18.648-114.493,50.97-153.295,100.804c-15.603,19.78-23.979,59.346-24.352,80.649v18.26v36.517v36.148
	c0,40.322,33.1,73.033,74.188,73.033h574.397c41.089,0,74.188-32.711,74.188-73.033v-36.148v-36.517v-18.26
	C876.206,735.569,867.829,696.003,852.226,676.223z"/>
</svg>
