<?xml version="1.0" encoding="utf-8"?>
<!-- Generator: Adobe Illustrator 15.0.0, SVG Export Plug-In . SVG Version: 6.00 Build 0)  -->
<!DOCTYPE svg PUBLIC "-//W3C//DTD SVG 1.1//EN" "http://www.w3.org/Graphics/SVG/1.1/DTD/svg11.dtd">
<svg version="1.1" id="图形" xmlns="http://www.w3.org/2000/svg" xmlns:xlink="http://www.w3.org/1999/xlink" x="0px" y="0px"
	 width="1000.637px" height="1000.678px" viewBox="15.167 -16.333 1000.637 1000.678"
	 enable-background="new 15.167 -16.333 1000.637 1000.678" xml:space="preserve">
<path fill-rule="evenodd" clip-rule="evenodd" fill="#899DC1" d="M379.251,136.867H168.262v210.987h210.989V136.867z
	 M424.164,438.052H122.98c-25.047,0-45.302-20.254-45.302-45.282V91.586c0-25.047,20.255-45.302,45.302-45.302h301.184
	c25.028,0,45.282,20.255,45.282,45.302v301.184C469.446,417.797,449.192,438.052,424.164,438.052z M379.251,618.852H168.262v210.987
	h210.989V618.852z M424.164,920.423H122.98c-25.047,0-45.302-20.255-45.302-45.302V573.938c0-25.028,20.255-45.282,45.302-45.282
	h301.184c25.028,0,45.282,20.254,45.282,45.282v301.184C469.446,900.168,449.192,920.423,424.164,920.423z M861.233,136.867H650.247
	v210.987h210.986V136.867z M906.516,438.052H605.333c-25.028,0-45.283-20.254-45.283-45.282V91.586
	c0-25.047,20.255-45.302,45.283-45.302h301.184c25.047,0,45.302,20.255,45.302,45.302v301.184
	C951.818,417.797,931.563,438.052,906.516,438.052z M861.233,618.852H650.247v210.987h210.986V618.852z M906.516,920.423H605.333
	c-25.028,0-45.283-20.255-45.283-45.302V573.938c0-25.028,20.255-45.282,45.283-45.282h301.184
	c25.047,0,45.302,20.254,45.302,45.282v301.184C951.818,900.168,931.563,920.423,906.516,920.423z"/>
</svg>
