<?xml version="1.0" encoding="utf-8"?>
<!-- Generator: Adobe Illustrator 15.0.0, SVG Export Plug-In . SVG Version: 6.00 Build 0)  -->
<!DOCTYPE svg PUBLIC "-//W3C//DTD SVG 1.1//EN" "http://www.w3.org/Graphics/SVG/1.1/DTD/svg11.dtd">
<svg version="1.1" id="图形" xmlns="http://www.w3.org/2000/svg" xmlns:xlink="http://www.w3.org/1999/xlink" x="0px" y="0px"
	 width="1000.637px" height="1000.678px" viewBox="15.167 -16.333 1000.637 1000.678"
	 enable-background="new 15.167 -16.333 1000.637 1000.678" xml:space="preserve">
<path fill-rule="evenodd" clip-rule="evenodd" fill="#22BAA0" d="M595.961,284.116c0-50.439,39.716-90.95,88.159-90.95
	c48.868,0,88.196,40.511,88.196,90.95c0,50.052-39.328,90.952-88.196,90.952C635.677,375.068,595.961,334.169,595.961,284.116z
	 M140.042,743.235c-27.421,28.198-27.421,73.867,0,102.064c27.382,28.196,71.869,28.196,98.863,0l19.858-20.247l82.225,85.387
	c14.312,14.292,36.923,14.292,50.848,0L514.939,783.34c13.885-14.293,13.885-37.72,0-52.012l-82.612-85.405l146.957-151.32
	c31.377,16.698,67.137,26.219,104.837,26.219c126.709,0,229.568-106.039,229.568-236.706c0-130.667-102.859-236.705-229.568-236.705
	c-126.674,0-229.144,106.039-229.144,236.705c0,38.921,9.154,75.864,25.017,108.424L140.042,743.235z"/>
</svg>
