<?xml version="1.0" encoding="utf-8"?>
<!-- Generator: Adobe Illustrator 15.0.0, SVG Export Plug-In . SVG Version: 6.00 Build 0)  -->
<!DOCTYPE svg PUBLIC "-//W3C//DTD SVG 1.1//EN" "http://www.w3.org/Graphics/SVG/1.1/DTD/svg11.dtd">
<svg version="1.1" id="图形" xmlns="http://www.w3.org/2000/svg" xmlns:xlink="http://www.w3.org/1999/xlink" x="0px" y="0px"
	 width="1000.637px" height="1000.678px" viewBox="15.167 -16.333 1000.637 1000.678"
	 enable-background="new 15.167 -16.333 1000.637 1000.678" xml:space="preserve">
<path fill-rule="evenodd" clip-rule="evenodd" fill="#899DC1" d="M951.833,845.364c0,22.396-18.535,40.589-40.931,40.589H118.109
	c-22.396,0-40.931-18.193-40.931-40.589c0,0,0-148.334,109.162-202.214c68.913-33.942,42.332-6.304,127.336-40.931
	c84.682-34.985,104.958-47.233,104.958-47.233l0.7-80.121c0,0-31.825-24.138-41.631-99.714
	c-19.936,5.944-26.582-23.079-27.64-41.273c-1.043-17.852-11.531-73.133,12.606-68.229c-4.902-36.729-8.405-70.331-6.645-87.824
	c5.944-61.909,66.471-126.996,159.18-131.54c109.162,4.544,152.194,69.271,158.479,131.54c1.76,17.493-2.083,50.736-7.347,87.824
	c24.5-4.903,14.01,50.378,12.608,68.229c-1.059,18.194-7.705,46.876-27.641,41.273c-9.806,75.576-41.631,99.372-41.631,99.372
	l0.701,79.761c0,0,20.276,11.189,104.959,46.177c85.005,34.985,58.422,8.746,127.336,43.031
	C951.833,697.03,951.833,845.364,951.833,845.364L951.833,845.364z"/>
</svg>
