<?xml version="1.0" encoding="utf-8"?>
<!-- Generator: Adobe Illustrator 15.0.0, SVG Export Plug-In . SVG Version: 6.00 Build 0)  -->
<!DOCTYPE svg PUBLIC "-//W3C//DTD SVG 1.1//EN" "http://www.w3.org/Graphics/SVG/1.1/DTD/svg11.dtd">
<svg version="1.1" id="图形" xmlns="http://www.w3.org/2000/svg" xmlns:xlink="http://www.w3.org/1999/xlink" x="0px" y="0px"
	 width="1000.637px" height="1000.678px" viewBox="15.167 -16.333 1000.637 1000.678"
	 enable-background="new 15.167 -16.333 1000.637 1000.678" xml:space="preserve">
<path fill-rule="evenodd" clip-rule="evenodd" fill="#899DC1" d="M316.208,203.526c-22.045,0-39.903-17.499-39.903-39.543V85.237
	c0-21.703,17.858-39.202,39.903-39.202c22.044,0,39.901,17.499,39.901,39.202v78.746
	C356.109,186.027,338.252,203.526,316.208,203.526z M515.345,203.526c-22.046,0-39.903-17.499-39.903-39.543V85.237
	c0-21.703,17.857-39.202,39.903-39.202c22.045,0,39.903,17.499,39.903,39.202v78.746
	C555.249,186.027,537.39,203.526,515.345,203.526z M714.482,203.526c-22.044,0-39.902-17.499-39.902-39.543V85.237
	c0-21.703,17.858-39.202,39.902-39.202c22.045,0,39.904,17.499,39.904,39.202v78.746
	C754.386,186.027,736.527,203.526,714.482,203.526z M761.033,688.953H269.658c-18.199,0-33.254,14.696-33.254,32.897
	c0,18.199,15.055,32.896,33.254,32.896h491.375c18.199,0,33.254-14.696,33.254-32.896
	C794.287,703.65,779.232,688.953,761.033,688.953z M754.386,518.509H276.305c-22.045,0-39.902,17.499-39.902,39.201
	c0,22.045,17.856,39.544,39.902,39.544h478.081c22.044,0,39.9-17.499,39.9-39.544C794.287,536.008,776.43,518.509,754.386,518.509z
	 M754.386,347.721H276.305c-22.045,0-39.902,17.842-39.902,39.544s17.856,39.202,39.902,39.202h478.081
	c22.044,0,39.9-17.5,39.9-39.202S776.43,347.721,754.386,347.721z M860.42,885.989H170.268c-22.062,0-39.902-17.499-39.902-39.544
	V163.983c0-21.704,17.841-39.203,39.902-39.203h66.135v39.203c0,43.746,35.699,78.745,79.805,78.745
	c44.089,0,79.788-34.999,79.788-78.745V124.78h39.56v39.203c0,43.746,35.701,78.745,79.79,78.745
	c44.088,0,79.788-34.999,79.788-78.745V124.78h39.562v39.203c0,43.746,35.698,78.745,79.787,78.745
	c44.106,0,79.805-34.999,79.805-78.745V124.78h66.134c22.063,0,39.903,17.499,39.903,39.203v682.462
	C900.324,868.49,882.484,885.989,860.42,885.989z"/>
</svg>
