<?xml version="1.0" encoding="utf-8"?>
<!-- Generator: Adobe Illustrator 15.0.0, SVG Export Plug-In . SVG Version: 6.00 Build 0)  -->
<!DOCTYPE svg PUBLIC "-//W3C//DTD SVG 1.1//EN" "http://www.w3.org/Graphics/SVG/1.1/DTD/svg11.dtd">
<svg version="1.1" id="图形" xmlns="http://www.w3.org/2000/svg" xmlns:xlink="http://www.w3.org/1999/xlink" x="0px" y="0px"
	 width="1000.637px" height="1000.678px" viewBox="15.167 -16.333 1000.637 1000.678"
	 enable-background="new 15.167 -16.333 1000.637 1000.678" xml:space="preserve">
<path fill-rule="evenodd" clip-rule="evenodd" fill="#899DC1" d="M801.526,424.522H683.235c-18.58,0-33.797-16.222-33.797-36.174
	c0-19.935,15.217-36.157,33.797-36.157h118.291c18.583,0,33.799,16.222,33.799,36.157
	C835.325,408.3,820.109,424.522,801.526,424.522z M801.526,279.53H683.235c-18.58,0-33.797-16.223-33.797-36.174
	c0-19.935,15.217-36.487,33.797-36.487h118.291c18.583,0,33.799,16.552,33.799,36.487
	C835.325,263.307,820.109,279.53,801.526,279.53z M801.526,714.837H379.058c-18.582,0-33.797-16.552-33.797-36.504
	c0-19.935,15.215-36.157,33.797-36.157h422.468c18.583,0,33.799,16.223,33.799,36.157
	C835.325,698.285,820.109,714.837,801.526,714.837z M801.526,569.514H379.058c-18.582,0-33.797-16.222-33.797-36.174
	c0-19.936,15.215-36.157,33.797-36.157h422.468c18.583,0,33.799,16.222,33.799,36.157
	C835.325,553.292,820.109,569.514,801.526,569.514z M581.843,246.739v137.896c0,22.312-16.569,39.887-37.182,39.887h-162.22
	c-20.612,0-37.181-17.575-37.181-39.887V246.739c0-21.965,16.568-39.87,37.181-39.87h162.22
	C565.274,206.868,581.843,224.773,581.843,246.739z M108.678,787.167v5.067v67.595h67.595h675.949h67.596v-67.595v-5.067V188.946
	c0-40.217-30.415-72.661-67.596-72.661H345.261h-16.898h-84.494V764.18c-5.066,3.036-10.81,5.067-16.899,5.067
	c-18.582,0-33.798-16.554-33.798-36.488V252.152c0-25.019-18.928-45.283-42.247-45.283s-42.247,20.265-42.247,45.283V787.167z"/>
</svg>
