<?xml version="1.0" encoding="utf-8"?>
<!-- Generator: Adobe Illustrator 15.0.0, SVG Export Plug-In . SVG Version: 6.00 Build 0)  -->
<!DOCTYPE svg PUBLIC "-//W3C//DTD SVG 1.1//EN" "http://www.w3.org/Graphics/SVG/1.1/DTD/svg11.dtd">
<svg version="1.1" id="图形" xmlns="http://www.w3.org/2000/svg" xmlns:xlink="http://www.w3.org/1999/xlink" x="0px" y="0px"
	 width="1000.637px" height="1000.678px" viewBox="15.167 -16.333 1000.637 1000.678"
	 enable-background="new 15.167 -16.333 1000.637 1000.678" xml:space="preserve">
<g>
	<polygon fill="#8FACD2" points="228.604,243.824 140.46,243.824 140.46,772.694 140.46,860.839 228.604,860.839 757.475,860.839 
		757.475,772.694 228.604,772.694 	"/>
	<path fill="#8FACD2" d="M581.185,72.534H334.375c-33.937,0-61.697,27.76-61.697,61.698v537.692
		c0,33.937,27.76,61.698,61.697,61.698h493.62c33.937,0,61.697-27.762,61.697-61.698v-423.1H581.185V72.534z M360.822,292.896
		h176.29v44.073h-176.29V292.896z M801.547,601.404H360.822v-44.072h440.725V601.404z M801.547,425.114v44.073H360.822v-44.073
		H801.547z"/>
	<polygon fill="#8FACD2" points="625.256,72.534 625.256,204.752 889.692,204.752 	"/>
</g>
</svg>
