<?xml version="1.0" encoding="utf-8"?>
<!-- Generator: Adobe Illustrator 15.0.0, SVG Export Plug-In . SVG Version: 6.00 Build 0)  -->
<!DOCTYPE svg PUBLIC "-//W3C//DTD SVG 1.1//EN" "http://www.w3.org/Graphics/SVG/1.1/DTD/svg11.dtd">
<svg version="1.1" id="图形" xmlns="http://www.w3.org/2000/svg" xmlns:xlink="http://www.w3.org/1999/xlink" x="0px" y="0px"
	 width="1000.637px" height="1000.678px" viewBox="15.167 -16.333 1000.637 1000.678"
	 enable-background="new 15.167 -16.333 1000.637 1000.678" xml:space="preserve">
<g>
	<path fill-rule="evenodd" clip-rule="evenodd" fill="#8FACD2" d="M867.713,243.819l-70.14,67.492l-96.606-103.224l68.816-66.168
		c14.473-14.454,40.278-33.084,65.341-8.043l49.792,54.361C899.391,202.691,882.186,229.365,867.713,243.819z M309.248,572.016
		L436.291,699.06H309.248V572.016z M759.197,356.306l-285.85,281.879L370.124,529.668l285.85-280.556L759.197,356.306z
		 M223.684,233.294v550.05h551.848V381.822l83.826-74.502v523.873c0,20.594-15.344,37.26-35.938,37.26H177.116
		c-20.594,0-37.26-16.666-37.26-37.26V185.446c0-20.574,16.666-37.241,37.26-37.241h526.457l-74.563,85.089H223.684z"/>
</g>
</svg>
