<?xml version="1.0" encoding="utf-8"?>
<!-- Generator: Adobe Illustrator 15.0.0, SVG Export Plug-In . SVG Version: 6.00 Build 0)  -->
<!DOCTYPE svg PUBLIC "-//W3C//DTD SVG 1.1//EN" "http://www.w3.org/Graphics/SVG/1.1/DTD/svg11.dtd">
<svg version="1.1" id="图形" xmlns="http://www.w3.org/2000/svg" xmlns:xlink="http://www.w3.org/1999/xlink" x="0px" y="0px"
	 width="1000.637px" height="1000.678px" viewBox="15.167 -16.333 1000.637 1000.678"
	 enable-background="new 15.167 -16.333 1000.637 1000.678" xml:space="preserve">
<g>
	<path fill="#8FACD2" d="M203.185,866.672c0,24.693,20.186,44.737,45.065,44.737h534.773c24.879,0,45.065-20.044,45.065-44.737
		V286.459H203.185V866.672z M587.741,406.68c0-13.262,10.749-24.035,24.035-24.035h48.069c13.285,0,24.035,10.772,24.035,24.035
		v384.556c0,13.284-10.75,24.033-24.035,24.033h-48.069c-13.286,0-24.035-10.749-24.035-24.033V406.68z M347.393,406.68
		c0-13.262,10.75-24.035,24.035-24.035h48.069c13.285,0,24.035,10.772,24.035,24.035v384.556c0,13.284-10.75,24.033-24.035,24.033
		h-48.069c-13.285,0-24.035-10.749-24.035-24.033V406.68z"/>
	<path fill="#8FACD2" d="M831.092,141.688H587.741V90.92c0-24.716-20.187-44.761-45.065-44.761h-54.078
		c-24.879,0-45.065,20.045-45.065,44.761v50.768H200.181c-24.878,0-45.065,20.02-45.065,44.737v50.767h721.042v-50.767
		C876.158,161.708,855.971,141.688,831.092,141.688z"/>
</g>
</svg>
